<?xml version="1.0" encoding="utf-8"?>
<!-- Generator: Adobe Illustrator 16.0.3, SVG Export Plug-In . SVG Version: 6.00 Build 0)  -->
<!DOCTYPE svg PUBLIC "-//W3C//DTD SVG 1.1//EN" "http://www.w3.org/Graphics/SVG/1.1/DTD/svg11.dtd">
<svg version="1.1" id="Capa_1" xmlns="http://www.w3.org/2000/svg" xmlns:xlink="http://www.w3.org/1999/xlink" x="0px" y="0px"
	 width="500px" height="200px" viewBox="0 0 500 200" enable-background="new 0 0 500 200" xml:space="preserve">
<g>
	<path fill="none" d="M79.51,672.053"/>
	<g>
		<path fill="#CCE0DF" d="M85.252,139.467c-5.906,4.898-11.619,8.572-17.137,11.02c-5.519,2.449-11.709,3.674-18.569,3.674
			c-6.264,0-11.768-1.32-16.511-3.959s-8.398-6.217-10.962-10.732c-2.566-4.518-3.848-9.414-3.848-14.693
			c0-7.123,2.117-13.197,6.354-18.223c4.235-5.023,10.052-8.397,17.45-10.114c1.551-0.382,5.398-1.24,11.544-2.576
			c6.144-1.336,11.41-2.56,15.794-3.673c4.385-1.112,9.142-2.465,14.273-4.055c-0.299-6.87-1.597-11.91-3.893-15.123
			c-2.297-3.211-7.056-4.818-14.273-4.818c-6.206,0-10.873,0.923-14.005,2.768c-3.132,1.846-5.817,4.611-8.054,8.3
			c-2.237,3.689-3.818,6.123-4.743,7.299c-0.926,1.178-2.908,1.765-5.951,1.765c-2.745,0-5.116-0.938-7.114-2.813
			c-2-1.875-2.998-4.277-2.998-7.204c0-4.58,1.521-9.031,4.564-13.357c3.042-4.324,7.785-7.886,14.229-10.686
			c6.443-2.798,14.466-4.198,24.072-4.198c10.739,0,19.18,1.353,25.325,4.055c6.144,2.705,10.484,6.981,13.021,12.833
			c2.535,5.854,3.803,13.612,3.803,23.28c0,6.106-0.015,11.291-0.044,15.551c-0.031,4.264-0.076,9.002-0.134,14.217
			c0,4.898,0.761,10.004,2.282,15.313c1.521,5.313,2.282,8.73,2.282,10.258c0,2.672-1.179,5.104-3.535,7.299
			c-2.357,2.193-5.026,3.291-8.009,3.291c-2.506,0-4.982-1.256-7.428-3.77C90.591,147.879,87.995,144.238,85.252,139.467z
			 M83.641,101.781c-3.58,1.4-8.785,2.879-15.616,4.438c-6.832,1.559-11.559,2.703-14.184,3.434
			c-2.626,0.732-5.132,2.164-7.517,4.295c-2.387,2.131-3.58,5.104-3.58,8.92c0,3.945,1.401,7.299,4.206,10.066
			c2.803,2.766,6.472,4.148,11.007,4.148c4.833,0,9.292-1.129,13.378-3.387c4.086-2.258,7.084-5.168,8.994-8.729
			c2.207-3.943,3.311-10.432,3.311-19.465L83.641,101.781L83.641,101.781z"/>
		<path fill="#CCE0DF" d="M200.602,107.602h-47.787c0.059,5.914,1.178,11.131,3.356,15.645c2.177,4.52,5.07,7.92,8.681,10.209
			c3.609,2.291,7.591,3.436,11.946,3.436c2.922,0,5.593-0.365,8.009-1.096c2.417-0.73,4.757-1.877,7.025-3.438
			c2.267-1.557,4.354-3.227,6.264-5.008c1.909-1.779,4.385-4.197,7.428-7.252c1.253-1.145,3.042-1.717,5.369-1.717
			c2.506,0,4.533,0.73,6.085,2.193c1.55,1.465,2.327,3.531,2.327,6.201c0,2.355-0.866,5.105-2.595,8.254
			c-1.731,3.148-4.34,6.17-7.83,9.063c-3.49,2.896-7.875,5.297-13.155,7.205c-5.28,1.906-11.351,2.859-18.211,2.859
			c-15.691,0-27.891-4.77-36.601-14.311c-8.711-9.541-13.065-22.482-13.065-38.83c0-7.696,1.074-14.837,3.221-21.419
			c2.148-6.583,5.28-12.229,9.396-16.936c4.116-4.707,9.187-8.314,15.213-10.829c6.025-2.512,12.708-3.769,20.045-3.769
			c9.544,0,17.733,2.146,24.564,6.44c6.831,4.293,11.947,9.844,15.348,16.648c3.4,6.807,5.101,13.739,5.101,20.799
			c0,6.553-1.76,10.797-5.28,12.737C211.936,106.631,206.985,107.602,200.602,107.602z M152.815,92.812h44.297
			c-0.597-8.903-2.85-15.566-6.756-19.988c-3.908-4.42-9.054-6.631-15.437-6.631c-6.085,0-11.083,2.242-14.989,6.728
			C156.022,77.404,153.65,84.035,152.815,92.812z"/>
		<path fill="#32A6BE" d="M328.748,67.338v75.658c0,8.65-0.863,16.092-2.594,22.326c-1.73,6.232-4.506,11.385-8.322,15.455
			c-3.818,4.07-8.814,7.092-14.988,9.064c-6.176,1.971-13.857,2.957-23.045,2.957c-8.41,0-15.93-1.256-22.551-3.77
			c-6.622-2.514-11.723-5.756-15.302-9.73c-3.58-3.977-5.37-8.063-5.37-12.26c0-3.182,1.014-5.771,3.043-7.775
			c2.027-2.004,4.474-3.006,7.338-3.006c3.58,0,6.711,1.686,9.396,5.057c1.311,1.717,2.668,3.449,4.07,5.199
			c1.4,1.75,2.953,3.244,4.652,4.484c1.701,1.24,3.744,2.162,6.131,2.768c2.387,0.604,5.131,0.906,8.232,0.906
			c6.324,0,11.23-0.939,14.721-2.814c3.492-1.877,5.938-4.5,7.338-7.871c1.402-3.373,2.223-6.98,2.463-10.828
			c0.236-3.848,0.416-10.033,0.535-18.559c-3.758,5.598-8.098,9.861-13.02,12.785c-4.922,2.926-10.783,4.389-17.586,4.389
			c-8.174,0-15.316-2.225-21.432-6.678c-6.116-4.451-10.814-10.688-14.095-18.701c-3.282-8.014-4.922-17.268-4.922-27.763
			c0-7.823,0.998-14.885,2.998-21.182c1.999-6.297,4.847-11.606,8.546-15.933c3.698-4.325,7.965-7.585,12.797-9.779
			c4.832-2.193,10.143-3.292,15.93-3.292c6.92,0,12.916,1.416,17.986,4.246c5.07,2.831,9.783,7.268,14.141,13.311v-3.53
			c0-4.517,1.043-8.015,3.131-10.495s4.771-3.721,8.055-3.721c4.711,0,7.844,1.638,9.396,4.914S328.748,61.17,328.748,67.338z
			 M257.965,100.35c0,10.558,2.16,18.542,6.486,23.947c4.324,5.406,9.918,8.109,16.779,8.109c4.057,0,7.889-1.16,11.5-3.482
			c3.607-2.32,6.547-5.818,8.813-10.494c2.268-4.676,3.4-10.354,3.4-17.031c0-10.621-2.191-18.89-6.576-24.805
			c-4.385-5.916-10.158-8.873-17.316-8.873c-6.979,0-12.572,2.831-16.777,8.491C260.068,81.874,257.965,89.918,257.965,100.35z"/>
		<path fill="#32A6BE" d="M365.797,36.14c-3.4,0-6.309-1.112-8.725-3.339s-3.625-5.375-3.625-9.446c0-3.688,1.238-6.726,3.715-9.111
			c2.475-2.385,5.354-3.577,8.635-3.577c3.162,0,5.967,1.081,8.412,3.243c2.445,2.163,3.67,5.313,3.67,9.445
			c0,4.007-1.193,7.141-3.58,9.398S369.078,36.14,365.797,36.14z M377.879,63.045v75.277c0,5.217-1.164,9.16-3.49,11.83
			c-2.326,2.672-5.279,4.008-8.859,4.008s-6.488-1.369-8.725-4.104c-2.238-2.732-3.355-6.646-3.355-11.734V63.808
			c0-5.152,1.117-9.031,3.355-11.64c2.236-2.607,5.145-3.912,8.725-3.912s6.533,1.304,8.859,3.912S377.879,58.403,377.879,63.045z"
			/>
		<path fill="#32A6BE" d="M481.775,120.1c0,7.188-1.643,13.342-4.922,18.461c-3.283,5.121-8.131,9.002-14.543,11.641
			c-6.414,2.639-14.215,3.959-23.4,3.959c-8.77,0-16.287-1.432-22.551-4.293c-6.266-2.861-10.889-6.439-13.871-10.732
			s-4.475-8.604-4.475-12.93c0-2.861,0.953-5.311,2.863-7.346c1.908-2.035,4.324-3.053,7.248-3.053c2.564,0,4.533,0.668,5.906,2.002
			c1.371,1.336,2.686,3.213,3.938,5.631c2.506,4.645,5.504,8.109,8.994,10.398s8.248,3.436,14.273,3.436
			c4.891,0,8.902-1.16,12.035-3.482c3.133-2.32,4.699-4.977,4.699-7.967c0-4.58-1.627-7.92-4.879-10.018
			c-3.252-2.102-8.605-4.104-16.063-6.012c-8.412-2.227-15.258-4.563-20.539-7.014c-5.277-2.447-9.5-5.676-12.66-9.683
			c-3.164-4.008-4.744-8.937-4.744-14.789c0-5.215,1.461-10.146,4.385-14.789c2.924-4.642,7.234-8.348,12.932-11.115
			c5.697-2.767,12.574-4.149,20.627-4.149c6.322,0,12.006,0.7,17.049,2.099c5.041,1.399,9.246,3.276,12.617,5.629
			c3.369,2.354,5.936,4.961,7.695,7.823s2.641,5.662,2.641,8.396c0,2.991-0.939,5.438-2.818,7.348
			c-1.879,1.908-4.551,2.861-8.01,2.861c-2.506,0-4.641-0.763-6.398-2.29c-1.76-1.525-3.771-3.815-6.039-6.868
			c-1.852-2.543-4.027-4.58-6.533-6.106s-5.906-2.29-10.201-2.29c-4.416,0-8.086,1.002-11.008,3.005
			c-2.924,2.003-4.385,4.5-4.385,7.489c0,2.736,1.074,4.978,3.221,6.726c2.148,1.751,5.041,3.196,8.682,4.343
			c3.639,1.145,8.648,2.545,15.035,4.196c7.574,1.974,13.766,4.326,18.566,7.062c4.803,2.734,8.441,5.962,10.918,9.683
			C480.535,111.082,481.775,115.328,481.775,120.1z"/>
	</g>
	<g>
	</g>
	<g>
	</g>
	<g>
	</g>
	<g>
	</g>
	<g>
	</g>
	<g>
	</g>
</g>
</svg>
