<?xml version="1.0" encoding="utf-8"?>
<!-- Generator: Adobe Illustrator 16.0.3, SVG Export Plug-In . SVG Version: 6.00 Build 0)  -->
<!DOCTYPE svg PUBLIC "-//W3C//DTD SVG 1.1//EN" "http://www.w3.org/Graphics/SVG/1.1/DTD/svg11.dtd">
<svg version="1.1" id="Capa_1" xmlns="http://www.w3.org/2000/svg" xmlns:xlink="http://www.w3.org/1999/xlink" x="0px" y="0px"
	 width="500px" height="500px" viewBox="0 0 500 500" enable-background="new 0 0 500 500" xml:space="preserve">
<path fill="#187F9B" d="M163.765,184.48v216.79c-23.072,0-41.778-18.709-41.778-41.779V185.503c0-11.85,9.701-22.269,21.544-21.901
	c5.499,0.168,10.489,2.477,14.117,6.107C161.422,173.481,163.765,178.72,163.765,184.48"/>
<path fill="#187F9B" d="M378.012,220.3v139.546c0,22.965-18.615,41.58-41.582,41.58V221.292c0-11.927,9.773-22.233,21.688-21.741
	c5.41,0.219,10.234,2.476,13.813,6.056C375.705,209.379,378.012,214.541,378.012,220.3"/>
<path fill="#0B111C" d="M217.286,305.236c-1.518,1.285-3.07,2.529-4.453,3.914C214.25,307.732,215.734,306.488,217.286,305.236"/>
<path fill="#187F9B" d="M324.607,135.527v268.029c0,13.428-10.893,24.324-24.322,24.324H200.147
	c-13.563,0-24.563-10.998-24.563-24.563V136.709c0-11.945,9.784-22.505,21.728-22.066c5.466,0.236,10.36,2.531,13.935,6.107
	c3.779,3.778,6.142,8.974,6.142,14.777v157.395c-1.148,0.676-2.295,1.418-3.409,2.191h-0.202l-2.766,2.195
	c-2.16,1.719-3.779,3.137-5.264,4.59c-1.079,1.076-2.193,2.191-3.442,3.574l-2.733,2.902v0.406
	c-0.235,0.336-0.471,0.639-0.708,0.941l-0.068,0.07l-0.033,0.068c-7.591,10.254-11.843,22.436-12.349,35.256
	c-0.033,0.744-0.033,1.621-0.033,2.531c0,4.758,0.539,9.547,1.585,14.24c0.438,2.057,0.979,3.947,1.654,5.801
	c3.61,11.135,10.357,21.088,19.433,28.748l2.836,2.359h0.201c11.068,8.268,24.158,12.588,38.025,12.588
	c14.272,0,27.733-4.623,38.935-13.33c0.709-0.572,1.352-1.08,2.023-1.652c14.445-12.043,22.742-29.826,22.742-48.754
	c0-19.908-9.041-38.295-24.83-50.439c-1.957-1.521-4.018-2.939-6.176-4.217V136.709c0-11.945,9.787-22.505,21.727-22.066
	c5.438,0.236,10.359,2.531,13.938,6.107C322.25,124.528,324.607,129.724,324.607,135.527"/>
<path fill="#0B111C" d="M210.504,383.783c0.168,0.201,0.338,0.371,0.506,0.576h0.034
	C210.842,384.188,210.673,383.984,210.504,383.783 M289.082,384.359h0.07c0.504-0.541,1.012-1.113,1.486-1.654
	C290.131,383.279,289.623,383.818,289.082,384.359 M301.398,332.129c0.607,1.957,1.082,3.98,1.451,6.039
	C302.512,336.109,302.006,334.086,301.398,332.129"/>
<path fill="#3CB0D0" d="M303.693,347.648c0,1.047-0.033,2.059-0.1,3.07c-0.033,0.742-0.1,1.482-0.172,2.227
	c-0.066,0.639-0.133,1.281-0.236,1.924c-0.607,4.588-1.787,9.01-3.506,13.156c-0.369,0.914-0.777,1.791-1.18,2.666
	c-0.41,0.877-0.844,1.721-1.318,2.564c-0.436,0.811-0.91,1.588-1.385,2.361c-0.605,1.045-1.277,2.027-1.957,3.002
	c-0.975,1.352-1.99,2.67-3.037,3.914c-0.1,0.068-0.133,0.102-0.164,0.172c-0.508,0.574-1.016,1.113-1.557,1.65
	c-1.416,1.553-2.965,3.002-4.586,4.352c-0.572,0.477-1.113,0.91-1.688,1.352c-9.01,7.053-20.346,11.203-32.694,11.203
	c-12.382,0-23.718-4.15-32.727-11.168c-0.573-0.408-1.114-0.846-1.687-1.354c-0.035-0.033-0.067-0.064-0.103-0.064
	c-1.619-1.352-3.136-2.801-4.553-4.32c-0.203-0.168-0.372-0.371-0.541-0.572c-0.203-0.201-0.405-0.439-0.608-0.676
	c-0.606-0.672-1.181-1.348-1.72-2.057c-0.169-0.172-0.27-0.303-0.406-0.475c-0.607-0.773-1.214-1.584-1.754-2.391
	c-1.384-1.959-2.598-4.018-3.677-6.176c-0.27-0.475-0.506-0.949-0.675-1.416c-0.338-0.68-0.674-1.352-0.912-2.063
	c-0.135-0.268-0.235-0.506-0.337-0.775c-0.438-1.113-0.844-2.225-1.214-3.338c-0.573-1.555-1.012-3.139-1.35-4.758
	c-0.878-3.848-1.349-7.861-1.349-12.012c0-0.709,0-1.418,0.033-2.127c0.438-11.1,4.185-21.287,10.359-29.623
	c0.909-1.213,1.82-2.396,2.799-3.506v-0.037c0.507-0.572,1.046-1.113,1.586-1.65c0.506-0.539,1.011-1.047,1.552-1.555
	c1.383-1.385,2.936-2.629,4.453-3.914c0.034,0,0.034,0,0.067-0.033h0.035c3.577-2.834,7.524-5.16,11.774-6.949V81.139
	c0-11.506,9.38-20.885,20.953-20.885c5.735,0,10.999,2.361,14.743,6.105c3.779,3.779,6.143,9.043,6.143,14.779v217.115
	c4.25,1.822,8.197,4.182,11.809,6.982c0.033,0.031,0.033,0.031,0.066,0.031c1.588,1.254,3.07,2.531,4.521,3.916
	c1.416,1.383,2.768,2.834,4.049,4.389l0.037,0.031c1.891,2.295,3.609,4.76,5.092,7.355c2.023,3.51,3.645,7.256,4.824,11.17
	c0.607,1.957,1.082,3.98,1.451,6.035C303.389,341.236,303.693,344.408,303.693,347.648"/>
<path fill="#0B111C" d="M217.286,305.236c-1.518,1.285-3.07,2.529-4.453,3.914C214.25,307.732,215.734,306.488,217.286,305.236"/>
<path fill="none" d="M79.83,841.908"/>
</svg>
